<?xml version="1.0" encoding="UTF-8" standalone="no"?>
<svg
   xmlns:dc="http://purl.org/dc/elements/1.1/"
   xmlns:cc="http://creativecommons.org/ns#"
   xmlns:rdf="http://www.w3.org/1999/02/22-rdf-syntax-ns#"
   xmlns:svg="http://www.w3.org/2000/svg"
   xmlns="http://www.w3.org/2000/svg"
   xmlns:sodipodi="http://sodipodi.sourceforge.net/DTD/sodipodi-0.dtd"
   xmlns:inkscape="http://www.inkscape.org/namespaces/inkscape"
   version="1.1"
   width="210mm"
   height="297mm"
   viewBox="0 0 0.21 0.297"
   id="svg772"
   sodipodi:docname="UR5_pattern.svg"
   inkscape:version="0.92.3 (2405546, 2018-03-11)">
  <metadata
     id="metadata778">
    <rdf:RDF>
      <cc:Work
         rdf:about="">
        <dc:format>image/svg+xml</dc:format>
        <dc:type
           rdf:resource="http://purl.org/dc/dcmitype/StillImage" />
        <dc:title></dc:title>
      </cc:Work>
    </rdf:RDF>
  </metadata>
  <defs
     id="defs776" />
  <sodipodi:namedview
     pagecolor="#ffffff"
     bordercolor="#666666"
     borderopacity="1"
     objecttolerance="10"
     gridtolerance="10"
     guidetolerance="10"
     inkscape:pageopacity="0"
     inkscape:pageshadow="2"
     inkscape:window-width="2493"
     inkscape:window-height="1385"
     id="namedview774"
     showgrid="true"
     units="mm"
     inkscape:zoom="0.70710678"
     inkscape:cx="203.79385"
     inkscape:cy="531.82145"
     inkscape:window-x="67"
     inkscape:window-y="27"
     inkscape:window-maximized="1"
     inkscape:current-layer="g770">
    <inkscape:grid
       type="xygrid"
       id="grid780"
       units="cm"
       spacingx="0.005"
       spacingy="0.03" />
  </sodipodi:namedview>
  <g
     id="g770"
     style="fill:#000000"
     transform="translate(0.025,0.02199999)">
    <g
       id="g98"
       transform="translate(0.005,0.00978329)">
      <rect
         x="0"
         y="0"
         width="0.0056250002"
         height="0.0056250002"
         id="rect2" />
      <rect
         x="0.0056250002"
         y="0"
         width="0.0056250002"
         height="0.0056250002"
         id="rect4" />
      <rect
         x="0.01125"
         y="0"
         width="0.0056250002"
         height="0.0056250002"
         id="rect6" />
      <rect
         x="0.016875001"
         y="0"
         width="0.0056250002"
         height="0.0056250002"
         id="rect8" />
      <rect
         x="0.022500001"
         y="0"
         width="0.0056250002"
         height="0.0056250002"
         id="rect10" />
      <rect
         x="0.028124999"
         y="0"
         width="0.0056250002"
         height="0.0056250002"
         id="rect12" />
      <rect
         x="0.033750001"
         y="0"
         width="0.0056250002"
         height="0.0056250002"
         id="rect14" />
      <rect
         x="0.039375"
         y="0"
         width="0.0056250002"
         height="0.0056250002"
         id="rect16" />
      <rect
         x="0"
         y="0.0056250002"
         width="0.0056250002"
         height="0.0056250002"
         id="rect18" />
      <rect
         x="0.016875001"
         y="0.0056250002"
         width="0.0056250002"
         height="0.0056250002"
         id="rect20" />
      <rect
         x="0.028124999"
         y="0.0056250002"
         width="0.0056250002"
         height="0.0056250002"
         id="rect22" />
      <rect
         x="0.039375"
         y="0.0056250002"
         width="0.0056250002"
         height="0.0056250002"
         id="rect24" />
      <rect
         x="0"
         y="0.01125"
         width="0.0056250002"
         height="0.0056250002"
         id="rect26" />
      <rect
         x="0.0056250002"
         y="0.01125"
         width="0.0056250002"
         height="0.0056250002"
         id="rect28" />
      <rect
         x="0.028124999"
         y="0.01125"
         width="0.0056250002"
         height="0.0056250002"
         id="rect30" />
      <rect
         x="0.039375"
         y="0.01125"
         width="0.0056250002"
         height="0.0056250002"
         id="rect32" />
      <rect
         x="0"
         y="0.016875001"
         width="0.0056250002"
         height="0.0056250002"
         id="rect34" />
      <rect
         x="0.0056250002"
         y="0.016875001"
         width="0.0056250002"
         height="0.0056250002"
         id="rect36" />
      <rect
         x="0.022500001"
         y="0.016875001"
         width="0.0056250002"
         height="0.0056250002"
         id="rect38" />
      <rect
         x="0.028124999"
         y="0.016875001"
         width="0.0056250002"
         height="0.0056250002"
         id="rect40" />
      <rect
         x="0.033750001"
         y="0.016875001"
         width="0.0056250002"
         height="0.0056250002"
         id="rect42" />
      <rect
         x="0.039375"
         y="0.016875001"
         width="0.0056250002"
         height="0.0056250002"
         id="rect44" />
      <rect
         x="0"
         y="0.022500001"
         width="0.0056250002"
         height="0.0056250002"
         id="rect46" />
      <rect
         x="0.01125"
         y="0.022500001"
         width="0.0056250002"
         height="0.0056250002"
         id="rect48" />
      <rect
         x="0.022500001"
         y="0.022500001"
         width="0.0056250002"
         height="0.0056250002"
         id="rect50" />
      <rect
         x="0.028124999"
         y="0.022500001"
         width="0.0056250002"
         height="0.0056250002"
         id="rect52" />
      <rect
         x="0.033750001"
         y="0.022500001"
         width="0.0056250002"
         height="0.0056250002"
         id="rect54" />
      <rect
         x="0.039375"
         y="0.022500001"
         width="0.0056250002"
         height="0.0056250002"
         id="rect56" />
      <rect
         x="0"
         y="0.028124999"
         width="0.0056250002"
         height="0.0056250002"
         id="rect58" />
      <rect
         x="0.0056250002"
         y="0.028124999"
         width="0.0056250002"
         height="0.0056250002"
         id="rect60" />
      <rect
         x="0.016875001"
         y="0.028124999"
         width="0.0056250002"
         height="0.0056250002"
         id="rect62" />
      <rect
         x="0.033750001"
         y="0.028124999"
         width="0.0056250002"
         height="0.0056250002"
         id="rect64" />
      <rect
         x="0.039375"
         y="0.028124999"
         width="0.0056250002"
         height="0.0056250002"
         id="rect66" />
      <rect
         x="0"
         y="0.033750001"
         width="0.0056250002"
         height="0.0056250002"
         id="rect68" />
      <rect
         x="0.0056250002"
         y="0.033750001"
         width="0.0056250002"
         height="0.0056250002"
         id="rect70" />
      <rect
         x="0.01125"
         y="0.033750001"
         width="0.0056250002"
         height="0.0056250002"
         id="rect72" />
      <rect
         x="0.016875001"
         y="0.033750001"
         width="0.0056250002"
         height="0.0056250002"
         id="rect74" />
      <rect
         x="0.028124999"
         y="0.033750001"
         width="0.0056250002"
         height="0.0056250002"
         id="rect76" />
      <rect
         x="0.033750001"
         y="0.033750001"
         width="0.0056250002"
         height="0.0056250002"
         id="rect78" />
      <rect
         x="0.039375"
         y="0.033750001"
         width="0.0056250002"
         height="0.0056250002"
         id="rect80" />
      <rect
         x="0"
         y="0.039375"
         width="0.0056250002"
         height="0.0056250002"
         id="rect82" />
      <rect
         x="0.0056250002"
         y="0.039375"
         width="0.0056250002"
         height="0.0056250002"
         id="rect84" />
      <rect
         x="0.01125"
         y="0.039375"
         width="0.0056250002"
         height="0.0056250002"
         id="rect86" />
      <rect
         x="0.016875001"
         y="0.039375"
         width="0.0056250002"
         height="0.0056250002"
         id="rect88" />
      <rect
         x="0.022500001"
         y="0.039375"
         width="0.0056250002"
         height="0.0056250002"
         id="rect90" />
      <rect
         x="0.028124999"
         y="0.039375"
         width="0.0056250002"
         height="0.0056250002"
         id="rect92" />
      <rect
         x="0.033750001"
         y="0.039375"
         width="0.0056250002"
         height="0.0056250002"
         id="rect94" />
      <rect
         x="0.039375"
         y="0.039375"
         width="0.0056250002"
         height="0.0056250002"
         id="rect96" />
    </g>
    <g
       id="g188"
       transform="translate(0.005,0.00978329)">
      <rect
         x="0.105"
         y="0"
         width="0.0056250002"
         height="0.0056250002"
         id="rect100" />
      <rect
         x="0.110625"
         y="0"
         width="0.0056250002"
         height="0.0056250002"
         id="rect102" />
      <rect
         x="0.11625"
         y="0"
         width="0.0056250002"
         height="0.0056250002"
         id="rect104" />
      <rect
         x="0.121875"
         y="0"
         width="0.0056250002"
         height="0.0056250002"
         id="rect106" />
      <rect
         x="0.1275"
         y="0"
         width="0.0056250002"
         height="0.0056250002"
         id="rect108" />
      <rect
         x="0.13312501"
         y="0"
         width="0.0056250002"
         height="0.0056250002"
         id="rect110" />
      <rect
         x="0.13875"
         y="0"
         width="0.0056250002"
         height="0.0056250002"
         id="rect112" />
      <rect
         x="0.144375"
         y="0"
         width="0.0056250002"
         height="0.0056250002"
         id="rect114" />
      <rect
         x="0.105"
         y="0.0056250002"
         width="0.0056250002"
         height="0.0056250002"
         id="rect116" />
      <rect
         x="0.121875"
         y="0.0056250002"
         width="0.0056250002"
         height="0.0056250002"
         id="rect118" />
      <rect
         x="0.13875"
         y="0.0056250002"
         width="0.0056250002"
         height="0.0056250002"
         id="rect120" />
      <rect
         x="0.144375"
         y="0.0056250002"
         width="0.0056250002"
         height="0.0056250002"
         id="rect122" />
      <rect
         x="0.105"
         y="0.01125"
         width="0.0056250002"
         height="0.0056250002"
         id="rect124" />
      <rect
         x="0.110625"
         y="0.01125"
         width="0.0056250002"
         height="0.0056250002"
         id="rect126" />
      <rect
         x="0.121875"
         y="0.01125"
         width="0.0056250002"
         height="0.0056250002"
         id="rect128" />
      <rect
         x="0.144375"
         y="0.01125"
         width="0.0056250002"
         height="0.0056250002"
         id="rect130" />
      <rect
         x="0.105"
         y="0.016875001"
         width="0.0056250002"
         height="0.0056250002"
         id="rect132" />
      <rect
         x="0.13312501"
         y="0.016875001"
         width="0.0056250002"
         height="0.0056250002"
         id="rect134" />
      <rect
         x="0.13875"
         y="0.016875001"
         width="0.0056250002"
         height="0.0056250002"
         id="rect136" />
      <rect
         x="0.144375"
         y="0.016875001"
         width="0.0056250002"
         height="0.0056250002"
         id="rect138" />
      <rect
         x="0.105"
         y="0.022500001"
         width="0.0056250002"
         height="0.0056250002"
         id="rect140" />
      <rect
         x="0.110625"
         y="0.022500001"
         width="0.0056250002"
         height="0.0056250002"
         id="rect142" />
      <rect
         x="0.1275"
         y="0.022500001"
         width="0.0056250002"
         height="0.0056250002"
         id="rect144" />
      <rect
         x="0.13312501"
         y="0.022500001"
         width="0.0056250002"
         height="0.0056250002"
         id="rect146" />
      <rect
         x="0.13875"
         y="0.022500001"
         width="0.0056250002"
         height="0.0056250002"
         id="rect148" />
      <rect
         x="0.144375"
         y="0.022500001"
         width="0.0056250002"
         height="0.0056250002"
         id="rect150" />
      <rect
         x="0.105"
         y="0.028124999"
         width="0.0056250002"
         height="0.0056250002"
         id="rect152" />
      <rect
         x="0.11625"
         y="0.028124999"
         width="0.0056250002"
         height="0.0056250002"
         id="rect154" />
      <rect
         x="0.13312501"
         y="0.028124999"
         width="0.0056250002"
         height="0.0056250002"
         id="rect156" />
      <rect
         x="0.144375"
         y="0.028124999"
         width="0.0056250002"
         height="0.0056250002"
         id="rect158" />
      <rect
         x="0.105"
         y="0.033750001"
         width="0.0056250002"
         height="0.0056250002"
         id="rect160" />
      <rect
         x="0.110625"
         y="0.033750001"
         width="0.0056250002"
         height="0.0056250002"
         id="rect162" />
      <rect
         x="0.11625"
         y="0.033750001"
         width="0.0056250002"
         height="0.0056250002"
         id="rect164" />
      <rect
         x="0.1275"
         y="0.033750001"
         width="0.0056250002"
         height="0.0056250002"
         id="rect166" />
      <rect
         x="0.13312501"
         y="0.033750001"
         width="0.0056250002"
         height="0.0056250002"
         id="rect168" />
      <rect
         x="0.144375"
         y="0.033750001"
         width="0.0056250002"
         height="0.0056250002"
         id="rect170" />
      <rect
         x="0.105"
         y="0.039375"
         width="0.0056250002"
         height="0.0056250002"
         id="rect172" />
      <rect
         x="0.110625"
         y="0.039375"
         width="0.0056250002"
         height="0.0056250002"
         id="rect174" />
      <rect
         x="0.11625"
         y="0.039375"
         width="0.0056250002"
         height="0.0056250002"
         id="rect176" />
      <rect
         x="0.121875"
         y="0.039375"
         width="0.0056250002"
         height="0.0056250002"
         id="rect178" />
      <rect
         x="0.1275"
         y="0.039375"
         width="0.0056250002"
         height="0.0056250002"
         id="rect180" />
      <rect
         x="0.13312501"
         y="0.039375"
         width="0.0056250002"
         height="0.0056250002"
         id="rect182" />
      <rect
         x="0.13875"
         y="0.039375"
         width="0.0056250002"
         height="0.0056250002"
         id="rect184" />
      <rect
         x="0.144375"
         y="0.039375"
         width="0.0056250002"
         height="0.0056250002"
         id="rect186" />
    </g>
    <g
       id="g290"
       transform="translate(0.005,0.0097833)">
      <rect
         x="0"
         y="0.105"
         width="0.0056250002"
         height="0.0056250002"
         id="rect190" />
      <rect
         x="0.0056250002"
         y="0.105"
         width="0.0056250002"
         height="0.0056250002"
         id="rect192" />
      <rect
         x="0.01125"
         y="0.105"
         width="0.0056250002"
         height="0.0056250002"
         id="rect194" />
      <rect
         x="0.016875001"
         y="0.105"
         width="0.0056250002"
         height="0.0056250002"
         id="rect196" />
      <rect
         x="0.022500001"
         y="0.105"
         width="0.0056250002"
         height="0.0056250002"
         id="rect198" />
      <rect
         x="0.028124999"
         y="0.105"
         width="0.0056250002"
         height="0.0056250002"
         id="rect200" />
      <rect
         x="0.033750001"
         y="0.105"
         width="0.0056250002"
         height="0.0056250002"
         id="rect202" />
      <rect
         x="0.039375"
         y="0.105"
         width="0.0056250002"
         height="0.0056250002"
         id="rect204" />
      <rect
         x="0"
         y="0.110625"
         width="0.0056250002"
         height="0.0056250002"
         id="rect206" />
      <rect
         x="0.016875001"
         y="0.110625"
         width="0.0056250002"
         height="0.0056250002"
         id="rect208" />
      <rect
         x="0.039375"
         y="0.110625"
         width="0.0056250002"
         height="0.0056250002"
         id="rect210" />
      <rect
         x="0"
         y="0.11625"
         width="0.0056250002"
         height="0.0056250002"
         id="rect212" />
      <rect
         x="0.0056250002"
         y="0.11625"
         width="0.0056250002"
         height="0.0056250002"
         id="rect214" />
      <rect
         x="0.016875001"
         y="0.11625"
         width="0.0056250002"
         height="0.0056250002"
         id="rect216" />
      <rect
         x="0.022500001"
         y="0.11625"
         width="0.0056250002"
         height="0.0056250002"
         id="rect218" />
      <rect
         x="0.033750001"
         y="0.11625"
         width="0.0056250002"
         height="0.0056250002"
         id="rect220" />
      <rect
         x="0.039375"
         y="0.11625"
         width="0.0056250002"
         height="0.0056250002"
         id="rect222" />
      <rect
         x="0"
         y="0.121875"
         width="0.0056250002"
         height="0.0056250002"
         id="rect224" />
      <rect
         x="0.01125"
         y="0.121875"
         width="0.0056250002"
         height="0.0056250002"
         id="rect226" />
      <rect
         x="0.016875001"
         y="0.121875"
         width="0.0056250002"
         height="0.0056250002"
         id="rect228" />
      <rect
         x="0.022500001"
         y="0.121875"
         width="0.0056250002"
         height="0.0056250002"
         id="rect230" />
      <rect
         x="0.028124999"
         y="0.121875"
         width="0.0056250002"
         height="0.0056250002"
         id="rect232" />
      <rect
         x="0.033750001"
         y="0.121875"
         width="0.0056250002"
         height="0.0056250002"
         id="rect234" />
      <rect
         x="0.039375"
         y="0.121875"
         width="0.0056250002"
         height="0.0056250002"
         id="rect236" />
      <rect
         x="0"
         y="0.1275"
         width="0.0056250002"
         height="0.0056250002"
         id="rect238" />
      <rect
         x="0.0056250002"
         y="0.1275"
         width="0.0056250002"
         height="0.0056250002"
         id="rect240" />
      <rect
         x="0.01125"
         y="0.1275"
         width="0.0056250002"
         height="0.0056250002"
         id="rect242" />
      <rect
         x="0.022500001"
         y="0.1275"
         width="0.0056250002"
         height="0.0056250002"
         id="rect244" />
      <rect
         x="0.028124999"
         y="0.1275"
         width="0.0056250002"
         height="0.0056250002"
         id="rect246" />
      <rect
         x="0.039375"
         y="0.1275"
         width="0.0056250002"
         height="0.0056250002"
         id="rect248" />
      <rect
         x="0"
         y="0.13312501"
         width="0.0056250002"
         height="0.0056250002"
         id="rect250" />
      <rect
         x="0.0056250002"
         y="0.13312501"
         width="0.0056250002"
         height="0.0056250002"
         id="rect252" />
      <rect
         x="0.01125"
         y="0.13312501"
         width="0.0056250002"
         height="0.0056250002"
         id="rect254" />
      <rect
         x="0.016875001"
         y="0.13312501"
         width="0.0056250002"
         height="0.0056250002"
         id="rect256" />
      <rect
         x="0.028124999"
         y="0.13312501"
         width="0.0056250002"
         height="0.0056250002"
         id="rect258" />
      <rect
         x="0.033750001"
         y="0.13312501"
         width="0.0056250002"
         height="0.0056250002"
         id="rect260" />
      <rect
         x="0.039375"
         y="0.13312501"
         width="0.0056250002"
         height="0.0056250002"
         id="rect262" />
      <rect
         x="0"
         y="0.13875"
         width="0.0056250002"
         height="0.0056250002"
         id="rect264" />
      <rect
         x="0.0056250002"
         y="0.13875"
         width="0.0056250002"
         height="0.0056250002"
         id="rect266" />
      <rect
         x="0.01125"
         y="0.13875"
         width="0.0056250002"
         height="0.0056250002"
         id="rect268" />
      <rect
         x="0.033750001"
         y="0.13875"
         width="0.0056250002"
         height="0.0056250002"
         id="rect270" />
      <rect
         x="0.039375"
         y="0.13875"
         width="0.0056250002"
         height="0.0056250002"
         id="rect272" />
      <rect
         x="0"
         y="0.144375"
         width="0.0056250002"
         height="0.0056250002"
         id="rect274" />
      <rect
         x="0.0056250002"
         y="0.144375"
         width="0.0056250002"
         height="0.0056250002"
         id="rect276" />
      <rect
         x="0.01125"
         y="0.144375"
         width="0.0056250002"
         height="0.0056250002"
         id="rect278" />
      <rect
         x="0.016875001"
         y="0.144375"
         width="0.0056250002"
         height="0.0056250002"
         id="rect280" />
      <rect
         x="0.022500001"
         y="0.144375"
         width="0.0056250002"
         height="0.0056250002"
         id="rect282" />
      <rect
         x="0.028124999"
         y="0.144375"
         width="0.0056250002"
         height="0.0056250002"
         id="rect284" />
      <rect
         x="0.033750001"
         y="0.144375"
         width="0.0056250002"
         height="0.0056250002"
         id="rect286" />
      <rect
         x="0.039375"
         y="0.144375"
         width="0.0056250002"
         height="0.0056250002"
         id="rect288" />
    </g>
    <g
       id="g382"
       transform="translate(0.005,0.0097833)">
      <rect
         x="0.105"
         y="0.105"
         width="0.0056250002"
         height="0.0056250002"
         id="rect292" />
      <rect
         x="0.110625"
         y="0.105"
         width="0.0056250002"
         height="0.0056250002"
         id="rect294" />
      <rect
         x="0.11625"
         y="0.105"
         width="0.0056250002"
         height="0.0056250002"
         id="rect296" />
      <rect
         x="0.121875"
         y="0.105"
         width="0.0056250002"
         height="0.0056250002"
         id="rect298" />
      <rect
         x="0.1275"
         y="0.105"
         width="0.0056250002"
         height="0.0056250002"
         id="rect300" />
      <rect
         x="0.13312501"
         y="0.105"
         width="0.0056250002"
         height="0.0056250002"
         id="rect302" />
      <rect
         x="0.13875"
         y="0.105"
         width="0.0056250002"
         height="0.0056250002"
         id="rect304" />
      <rect
         x="0.144375"
         y="0.105"
         width="0.0056250002"
         height="0.0056250002"
         id="rect306" />
      <rect
         x="0.105"
         y="0.110625"
         width="0.0056250002"
         height="0.0056250002"
         id="rect308" />
      <rect
         x="0.1275"
         y="0.110625"
         width="0.0056250002"
         height="0.0056250002"
         id="rect310" />
      <rect
         x="0.13312501"
         y="0.110625"
         width="0.0056250002"
         height="0.0056250002"
         id="rect312" />
      <rect
         x="0.144375"
         y="0.110625"
         width="0.0056250002"
         height="0.0056250002"
         id="rect314" />
      <rect
         x="0.105"
         y="0.11625"
         width="0.0056250002"
         height="0.0056250002"
         id="rect316" />
      <rect
         x="0.110625"
         y="0.11625"
         width="0.0056250002"
         height="0.0056250002"
         id="rect318" />
      <rect
         x="0.11625"
         y="0.11625"
         width="0.0056250002"
         height="0.0056250002"
         id="rect320" />
      <rect
         x="0.121875"
         y="0.11625"
         width="0.0056250002"
         height="0.0056250002"
         id="rect322" />
      <rect
         x="0.144375"
         y="0.11625"
         width="0.0056250002"
         height="0.0056250002"
         id="rect324" />
      <rect
         x="0.105"
         y="0.121875"
         width="0.0056250002"
         height="0.0056250002"
         id="rect326" />
      <rect
         x="0.11625"
         y="0.121875"
         width="0.0056250002"
         height="0.0056250002"
         id="rect328" />
      <rect
         x="0.121875"
         y="0.121875"
         width="0.0056250002"
         height="0.0056250002"
         id="rect330" />
      <rect
         x="0.144375"
         y="0.121875"
         width="0.0056250002"
         height="0.0056250002"
         id="rect332" />
      <rect
         x="0.105"
         y="0.1275"
         width="0.0056250002"
         height="0.0056250002"
         id="rect334" />
      <rect
         x="0.11625"
         y="0.1275"
         width="0.0056250002"
         height="0.0056250002"
         id="rect336" />
      <rect
         x="0.1275"
         y="0.1275"
         width="0.0056250002"
         height="0.0056250002"
         id="rect338" />
      <rect
         x="0.13312501"
         y="0.1275"
         width="0.0056250002"
         height="0.0056250002"
         id="rect340" />
      <rect
         x="0.144375"
         y="0.1275"
         width="0.0056250002"
         height="0.0056250002"
         id="rect342" />
      <rect
         x="0.105"
         y="0.13312501"
         width="0.0056250002"
         height="0.0056250002"
         id="rect344" />
      <rect
         x="0.121875"
         y="0.13312501"
         width="0.0056250002"
         height="0.0056250002"
         id="rect346" />
      <rect
         x="0.1275"
         y="0.13312501"
         width="0.0056250002"
         height="0.0056250002"
         id="rect348" />
      <rect
         x="0.13875"
         y="0.13312501"
         width="0.0056250002"
         height="0.0056250002"
         id="rect350" />
      <rect
         x="0.144375"
         y="0.13312501"
         width="0.0056250002"
         height="0.0056250002"
         id="rect352" />
      <rect
         x="0.105"
         y="0.13875"
         width="0.0056250002"
         height="0.0056250002"
         id="rect354" />
      <rect
         x="0.110625"
         y="0.13875"
         width="0.0056250002"
         height="0.0056250002"
         id="rect356" />
      <rect
         x="0.1275"
         y="0.13875"
         width="0.0056250002"
         height="0.0056250002"
         id="rect358" />
      <rect
         x="0.13312501"
         y="0.13875"
         width="0.0056250002"
         height="0.0056250002"
         id="rect360" />
      <rect
         x="0.13875"
         y="0.13875"
         width="0.0056250002"
         height="0.0056250002"
         id="rect362" />
      <rect
         x="0.144375"
         y="0.13875"
         width="0.0056250002"
         height="0.0056250002"
         id="rect364" />
      <rect
         x="0.105"
         y="0.144375"
         width="0.0056250002"
         height="0.0056250002"
         id="rect366" />
      <rect
         x="0.110625"
         y="0.144375"
         width="0.0056250002"
         height="0.0056250002"
         id="rect368" />
      <rect
         x="0.11625"
         y="0.144375"
         width="0.0056250002"
         height="0.0056250002"
         id="rect370" />
      <rect
         x="0.121875"
         y="0.144375"
         width="0.0056250002"
         height="0.0056250002"
         id="rect372" />
      <rect
         x="0.1275"
         y="0.144375"
         width="0.0056250002"
         height="0.0056250002"
         id="rect374" />
      <rect
         x="0.13312501"
         y="0.144375"
         width="0.0056250002"
         height="0.0056250002"
         id="rect376" />
      <rect
         x="0.13875"
         y="0.144375"
         width="0.0056250002"
         height="0.0056250002"
         id="rect378" />
      <rect
         x="0.144375"
         y="0.144375"
         width="0.0056250002"
         height="0.0056250002"
         id="rect380" />
    </g>
    <path
       style="fill:none;stroke:#000000;stroke-width:0.00026458px;stroke-linecap:butt;stroke-linejoin:miter;stroke-opacity:1"
       d="m -0.015,-0.01021671 h 0.19"
       id="path784"
       inkscape:connector-curvature="0" />
    <path
       style="fill:none;stroke:#000000;stroke-width:0.0002654px;stroke-linecap:butt;stroke-linejoin:miter;stroke-opacity:1"
       d="m 0.175,0.17978329 h -0.19 v -0.19"
       id="path786"
       inkscape:connector-curvature="0" />
    <path
       style="fill:none;stroke:#000000;stroke-width:0.00026539px;stroke-linecap:butt;stroke-linejoin:miter;stroke-opacity:1"
       d="m 0.175,-0.01021671 v 0.19"
       id="path788"
       inkscape:connector-curvature="0" />
    <path
       style="fill:none;stroke:#000000;stroke-width:0.00027538px;stroke-linecap:butt;stroke-linejoin:miter;stroke-opacity:1"
       d="M -0.005,0.06478329 H 0.06"
       id="path889"
       inkscape:connector-curvature="0" />
    <path
       style="fill:none;stroke:#000000;stroke-width:0.00026458px;stroke-linecap:butt;stroke-linejoin:miter;stroke-opacity:1"
       d="M 0.06,-2.1670668e-4 V 0.06478329"
       id="path893"
       inkscape:connector-curvature="0" />
    <path
       style="fill:none;stroke:#000000;stroke-width:0.00026458px;stroke-linecap:butt;stroke-linejoin:miter;stroke-opacity:1"
       d="M -0.005,-2.1670668e-4 H 0.06"
       id="path895"
       inkscape:connector-curvature="0" />
    <path
       style="fill:none;stroke:#000000;stroke-width:0.00026458px;stroke-linecap:butt;stroke-linejoin:miter;stroke-opacity:1"
       d="M -0.005,0.06478329 V -2.1670668e-4"
       id="path897"
       inkscape:connector-curvature="0" />
    <path
       style="fill:none;stroke:#000000;stroke-width:0.00027538px;stroke-linecap:butt;stroke-linejoin:miter;stroke-opacity:1"
       d="M 0.1,0.06478329 H 0.165"
       id="path889-9"
       inkscape:connector-curvature="0" />
    <path
       style="fill:none;stroke:#000000;stroke-width:0.00026458px;stroke-linecap:butt;stroke-linejoin:miter;stroke-opacity:1"
       d="M 0.165,-2.1670668e-4 V 0.06478329"
       id="path893-2"
       inkscape:connector-curvature="0" />
    <path
       style="fill:none;stroke:#000000;stroke-width:0.00026458px;stroke-linecap:butt;stroke-linejoin:miter;stroke-opacity:1"
       d="M 0.1,-2.1670668e-4 H 0.165"
       id="path895-2"
       inkscape:connector-curvature="0" />
    <path
       style="fill:none;stroke:#000000;stroke-width:0.00026458px;stroke-linecap:butt;stroke-linejoin:miter;stroke-opacity:1"
       d="M 0.1,0.06478329 V -2.1670668e-4"
       id="path897-4"
       inkscape:connector-curvature="0" />
    <path
       style="fill:none;stroke:#000000;stroke-width:0.00027538px;stroke-linecap:butt;stroke-linejoin:miter;stroke-opacity:1"
       d="M 0.1,0.16978329 H 0.165"
       id="path889-7"
       inkscape:connector-curvature="0" />
    <path
       style="fill:none;stroke:#000000;stroke-width:0.00026458px;stroke-linecap:butt;stroke-linejoin:miter;stroke-opacity:1"
       d="m 0.165,0.10478329 v 0.065"
       id="path893-7"
       inkscape:connector-curvature="0" />
    <path
       style="fill:none;stroke:#000000;stroke-width:0.00026458px;stroke-linecap:butt;stroke-linejoin:miter;stroke-opacity:1"
       d="M 0.1,0.10478329 H 0.165"
       id="path895-5"
       inkscape:connector-curvature="0" />
    <path
       style="fill:none;stroke:#000000;stroke-width:0.00026458px;stroke-linecap:butt;stroke-linejoin:miter;stroke-opacity:1"
       d="m 0.1,0.16978329 v -0.065"
       id="path897-48"
       inkscape:connector-curvature="0" />
    <path
       style="fill:none;stroke:#000000;stroke-width:0.00027538px;stroke-linecap:butt;stroke-linejoin:miter;stroke-opacity:1"
       d="M -0.005,0.16978329 H 0.06"
       id="path889-1"
       inkscape:connector-curvature="0" />
    <path
       style="fill:none;stroke:#000000;stroke-width:0.00026458px;stroke-linecap:butt;stroke-linejoin:miter;stroke-opacity:1"
       d="m 0.06,0.10478329 v 0.065"
       id="path893-28"
       inkscape:connector-curvature="0" />
    <path
       style="fill:none;stroke:#000000;stroke-width:0.00026458px;stroke-linecap:butt;stroke-linejoin:miter;stroke-opacity:1"
       d="M -0.005,0.10478329 H 0.06"
       id="path895-9"
       inkscape:connector-curvature="0" />
    <path
       style="fill:none;stroke:#000000;stroke-width:0.00026458px;stroke-linecap:butt;stroke-linejoin:miter;stroke-opacity:1"
       d="m -0.005,0.16978329 v -0.065"
       id="path897-3"
       inkscape:connector-curvature="0" />
    <path
       style="fill:#000000;fill-opacity:1;stroke-width:0.00018709"
       d="m -0.01486572,-0.01008177 c 0,0.06323597 0,0.12647194 0,0.18970791 0.0026291,2.4722e-4 0.00544848,3.534e-5 0.00815078,1.0597e-4 0.060492,0 0.12098401,0 0.18147601,0 2.4722e-4,-0.002629 3.534e-5,-0.005448 1.0596e-4,-0.008151 0,-0.0605544 0,-0.12110873 0,-0.1816631 -0.002629,-2.4722e-4 -0.005448,-3.534e-5 -0.008151,-1.0596e-4 -0.060492,0 -0.12098401,0 -0.18147601,0 z m 0.04238801,0.009834603 c 0.01087818,0 0.02175636,0 0.03263455,0 0,0.0216940067 0,0.0433880067 0,0.0650820067 -0.02175637,0 -0.04351274,0 -0.0652691,0 0,-0.021694 0,-0.043388 0,-0.0650820067 0.01087818,0 0.02175636,0 0.03263455,0 z m 0.10495674,0 c 0.0108782,0 0.0217564,0 0.0326346,0 0,0.0216940067 0,0.0433880067 0,0.0650820067 -0.0217564,0 -0.0435127,0 -0.0652691,0 0,-0.021694 0,-0.043388 0,-0.0650820067 0.01087819,0 0.02175637,0 0.0326345,0 z M 0.02752265,0.10470956 c 0.01087843,0 0.02175686,0 0.03263528,0 -3.174e-5,0.0217252 -6.328e-5,0.0434504 -9.464e-5,0.0651755 -0.02168448,-3.34e-6 -0.04338413,1.5051e-4 -0.06505935,-2.194e-5 -2.0293e-4,-0.0217064 -8.175e-5,-0.0434377 -1.162e-4,-0.0651536 0.0108783,0 0.02175661,0 0.03263491,4e-8 z m 0.10495675,0 c 0.0108784,0 0.0217569,0 0.0326353,0 -3.173e-5,0.0217252 -6.328e-5,0.0434504 -9.464e-5,0.0651755 -0.0216845,-3.34e-6 -0.0433841,1.5051e-4 -0.06505935,-2.194e-5 -2.0293e-4,-0.0217064 -8.175e-5,-0.0434377 -1.162e-4,-0.0651536 0.0108783,0 0.02175661,0 0.03263489,4e-8 z"
       id="path947"
       inkscape:connector-curvature="0" />
    <path
       style="fill:#000000;fill-opacity:1;stroke-width:0.01104854"
       d="m 755.30406,756.04047 c -0.19283,0.0386 -0.33228,0.2264 -0.3226,0.42135 -0.0638,1.71131 -0.15312,3.41475 -0.29843,5.12193 -0.0108,0.19399 -0.0435,0.38794 -0.0382,0.58214 0.0202,0.21343 0.22554,0.37292 0.4354,0.36622 0.16855,-0.006 0.35008,0.0317 0.50584,-0.0482 0.1577,-0.0826 0.22687,-0.26782 0.20859,-0.43857 -0.003,-1.86762 0.004,-3.73529 -0.0104,-5.60286 0.004,-0.20481 -0.163,-0.39522 -0.36937,-0.40701 -0.0365,-0.006 -0.0741,0.004 -0.11085,0.005 z"
       id="path225"
       inkscape:connector-curvature="0"
       transform="matrix(2.6458333e-4,0,0,2.6458333e-4,-0.025,-0.02199999)" />
    <rect
       style="fill:#000000;fill-opacity:1;stroke-width:0.00026458"
       id="rect227"
       width="0.19"
       height="0.06521672"
       x="-0.015"
       y="0.17978328" />
    <path
       style="fill:none;stroke:#000000;stroke-width:0.00026458px;stroke-linecap:butt;stroke-linejoin:miter;stroke-opacity:1"
       d="m -0.015,0.17978329 v 0.0652167"
       id="path229"
       inkscape:connector-curvature="0" />
    <path
       style="fill:none;stroke:#000000;stroke-width:0.00026458px;stroke-linecap:butt;stroke-linejoin:miter;stroke-opacity:1"
       d="m -0.015,0.24500002 h 0.19 v -0.0652167"
       id="path231"
       inkscape:connector-curvature="0" />
  </g>
</svg>
